<svg id="Recurso_1" data-name="Recurso 1" xmlns="http://www.w3.org/2000/svg" width="82.444" height="56.927" viewBox="0 0 82.444 56.927">
  <g id="Capa_1" data-name="Capa 1" transform="translate(0)">
    <path id="Path_18" data-name="Path 18" d="M1.834,19.67A1.834,1.834,0,0,0,0,21.516V27.55a1.834,1.834,0,0,0,3.62,0V21.516A1.834,1.834,0,0,0,1.834,19.67Z" transform="translate(0 4.066)" fill="#fff"/>
    <path id="Path_19" data-name="Path 19" d="M7.774,19.67A1.834,1.834,0,0,0,5.94,21.516V27.55a1.834,1.834,0,0,0,3.62,0V21.516A1.834,1.834,0,0,0,7.774,19.67Z" transform="translate(1.228 4.066)" fill="#fff"/>
    <path id="Path_20" data-name="Path 20" d="M13.714,17.54a1.834,1.834,0,0,0-1.834,1.834V30.6a1.834,1.834,0,0,0,3.62,0V19.374A1.834,1.834,0,0,0,13.714,17.54Z" transform="translate(2.456 3.626)" fill="#fff"/>
    <path id="Path_21" data-name="Path 21" d="M19.658,15a1.834,1.834,0,0,0-1.834,1.834V34.175a1.834,1.834,0,1,0,3.62,0V16.858A1.834,1.834,0,0,0,19.658,15Z" transform="translate(3.68 3.101)" fill="#fff"/>
    <path id="Path_22" data-name="Path 22" d="M25.584,10.56a1.834,1.834,0,0,0-1.834,1.834V40.463a1.834,1.834,0,0,0,3.62,0V12.406a1.834,1.834,0,0,0-1.786-1.846Z" transform="translate(4.91 2.183)" fill="#fff"/>
    <path id="Path_23" data-name="Path 23" d="M31.524,0A1.834,1.834,0,0,0,29.69,1.834V55.389a1.834,1.834,0,0,0,3.62,0V1.834A1.834,1.834,0,0,0,31.524,0Z" transform="translate(6.138)" fill="#fff"/>
    <path id="Path_24" data-name="Path 24" d="M37.466,3.78A1.834,1.834,0,0,0,35.62,5.614V50.058a1.834,1.834,0,0,0,3.62,0V5.614A1.834,1.834,0,0,0,37.466,3.78Z" transform="translate(7.364 0.781)" fill="#fff"/>
    <path id="Path_25" data-name="Path 25" d="M43.408,11.34a1.834,1.834,0,0,0-1.834,1.834v26.2a1.834,1.834,0,1,0,3.62,0v-26.2A1.834,1.834,0,0,0,43.408,11.34Z" transform="translate(8.59 2.344)" fill="#fff"/>
    <path id="Path_26" data-name="Path 26" d="M49.314,15.89a1.834,1.834,0,0,0-1.834,1.834V32.917a1.834,1.834,0,0,0,3.62,0V17.736A1.834,1.834,0,0,0,49.314,15.89Z" transform="translate(9.816 3.285)" fill="#fff"/>
    <path id="Path_27" data-name="Path 27" d="M55.318,17.83a1.834,1.834,0,0,0-1.834,1.834V30.187a1.834,1.834,0,1,0,3.62,0V19.664a1.834,1.834,0,0,0-1.786-1.834Z" transform="translate(11.052 3.686)" fill="#fff"/>
    <path id="Path_28" data-name="Path 28" d="M61.214,19.67A1.834,1.834,0,0,0,59.38,21.5v6.034a1.834,1.834,0,0,0,3.62,0V21.5a1.834,1.834,0,0,0-1.786-1.834Z" transform="translate(12.276 4.066)" fill="#fff"/>
    <path id="Path_29" data-name="Path 29" d="M67.154,19.67A1.834,1.834,0,0,0,65.32,21.5v6.034a1.834,1.834,0,0,0,3.62,0V21.5A1.834,1.834,0,0,0,67.154,19.67Z" transform="translate(13.504 4.066)" fill="#fff"/>
  </g>
</svg>
