<svg id="Recurso_2" data-name="Recurso 2" xmlns="http://www.w3.org/2000/svg" width="80.067" height="60.156" viewBox="0 0 80.067 60.156">
  <g id="Capa_1" data-name="Capa 1" transform="translate(0 0)">
    <path id="Path_30" data-name="Path 30" d="M13.857,46.85H1.79a1.81,1.81,0,1,0,0,3.62H13.857a1.81,1.81,0,0,0,0-3.62Z" transform="translate(0.02 9.685)" fill="#fff"/>
    <path id="Path_31" data-name="Path 31" d="M13.857,40.16H1.79a1.81,1.81,0,1,0,0,3.62H13.857a1.81,1.81,0,0,0,0-3.62Z" transform="translate(0.02 8.302)" fill="#fff"/>
    <path id="Path_32" data-name="Path 32" d="M13.857,33.46H1.79a1.81,1.81,0,0,0,0,3.62H13.857a1.81,1.81,0,0,0,0-3.62Z" transform="translate(0.02 6.917)" fill="#fff"/>
    <path id="Path_33" data-name="Path 33" d="M13.857,26.77H1.79a1.81,1.81,0,0,0,0,3.62H13.857a1.81,1.81,0,0,0,0-3.62Z" transform="translate(0.02 5.534)" fill="#fff"/>
    <path id="Path_34" data-name="Path 34" d="M13.857,20.08H1.79a1.81,1.81,0,1,0,0,3.62H13.857a1.81,1.81,0,0,0,0-3.62Z" transform="translate(0.02 4.151)" fill="#fff"/>
    <path id="Path_35" data-name="Path 35" d="M13.857,13.39H1.79a1.81,1.81,0,1,0,0,3.62H13.857a1.81,1.81,0,0,0,0-3.62Z" transform="translate(0.02 2.768)" fill="#fff"/>
    <path id="Path_36" data-name="Path 36" d="M13.857,6.69H1.79a1.81,1.81,0,1,0,0,3.62H13.857a1.81,1.81,0,0,0,0-3.62Z" transform="translate(0.02 1.383)" fill="#fff"/>
    <path id="Path_37" data-name="Path 37" d="M13.857,0H1.79a1.81,1.81,0,1,0,0,3.62H13.857a1.81,1.81,0,0,0,0-3.62Z" transform="translate(0.02 0)" fill="#fff"/>
    <path id="Path_38" data-name="Path 38" d="M31.637,46.85H19.57a1.81,1.81,0,1,0,0,3.62H31.637a1.81,1.81,0,1,0,0-3.62Z" transform="translate(3.696 9.685)" fill="#fff"/>
    <path id="Path_39" data-name="Path 39" d="M31.637,40.16H19.57a1.81,1.81,0,0,0,0,3.62H31.637a1.81,1.81,0,0,0,0-3.62Z" transform="translate(3.696 8.302)" fill="#fff"/>
    <path id="Path_40" data-name="Path 40" d="M31.637,33.46H19.57a1.81,1.81,0,0,0,0,3.62H31.637a1.81,1.81,0,0,0,0-3.62Z" transform="translate(3.696 6.917)" fill="#fff"/>
    <path id="Path_41" data-name="Path 41" d="M31.637,26.77H19.57a1.81,1.81,0,0,0,0,3.62H31.637a1.81,1.81,0,0,0,0-3.62Z" transform="translate(3.696 5.534)" fill="#fff"/>
    <path id="Path_42" data-name="Path 42" d="M31.637,20.08H19.57a1.81,1.81,0,0,0,0,3.62H31.637a1.81,1.81,0,0,0,0-3.62Z" transform="translate(3.696 4.151)" fill="#fff"/>
    <path id="Path_43" data-name="Path 43" d="M49.377,46.85H37.31a1.81,1.81,0,0,0,0,3.62H49.377a1.81,1.81,0,1,0,0-3.62Z" transform="translate(7.363 9.685)" fill="#fff"/>
    <path id="Path_44" data-name="Path 44" d="M49.377,40.16H37.31a1.81,1.81,0,0,0,0,3.62H49.377a1.81,1.81,0,1,0,0-3.62Z" transform="translate(7.363 8.302)" fill="#fff"/>
    <path id="Path_45" data-name="Path 45" d="M67.207,46.85H55.14a1.81,1.81,0,0,0,0,3.62H67.207a1.81,1.81,0,0,0,0-3.62Z" transform="translate(11.049 9.685)" fill="#fff"/>
    <path id="Path_46" data-name="Path 46" d="M67.207,40.16H55.14a1.81,1.81,0,0,0,0,3.62H67.207a1.81,1.81,0,0,0,0-3.62Z" transform="translate(11.049 8.302)" fill="#fff"/>
    <path id="Path_47" data-name="Path 47" d="M67.207,33.46H55.14a1.81,1.81,0,0,0,0,3.62H67.207a1.81,1.81,0,0,0,0-3.62Z" transform="translate(11.049 6.917)" fill="#fff"/>
    <path id="Path_48" data-name="Path 48" d="M67.207,26.77H55.14a1.81,1.81,0,0,0,0,3.62H67.207a1.81,1.81,0,0,0,0-3.62Z" transform="translate(11.049 5.534)" fill="#fff"/>
    <path id="Path_49" data-name="Path 49" d="M67.207,20.08H55.14a1.81,1.81,0,0,0,0,3.62H67.207a1.81,1.81,0,0,0,0-3.62Z" transform="translate(11.049 4.151)" fill="#fff"/>
    <path id="Path_50" data-name="Path 50" d="M67.207,13.39H55.14a1.81,1.81,0,0,0,0,3.62H67.207a1.81,1.81,0,0,0,0-3.62Z" transform="translate(11.049 2.768)" fill="#fff"/>
    <path id="Path_51" data-name="Path 51" d="M67.207,6.69H55.14a1.81,1.81,0,1,0,0,3.62H67.207a1.81,1.81,0,0,0,0-3.62Z" transform="translate(11.049 1.383)" fill="#fff"/>
    <path id="Path_52" data-name="Path 52" d="M55.14,3.62H67.207a1.81,1.81,0,0,0,0-3.62H55.14a1.81,1.81,0,0,0,0,3.62Z" transform="translate(11.049 0)" fill="#fff"/>
  </g>
</svg>
