<svg xmlns="http://www.w3.org/2000/svg" width="1229.031" height="383.34" viewBox="0 0 1229.031 383.34">
  <g id="Group_51" data-name="Group 51" transform="translate(0 0)">
    <g id="Group_1" data-name="Group 1" transform="translate(0 0)">
      <path id="Path_1" data-name="Path 1" d="M505.721,148.546A105.191,105.191,0,1,0,610.911,253.737,105.308,105.308,0,0,0,505.721,148.546Zm0,167.794a62.6,62.6,0,1,1,62.6-62.6A62.674,62.674,0,0,1,505.721,316.34Z" transform="translate(-170.886 -61.974)" fill="#fff"/>
      <path id="Path_2" data-name="Path 2" d="M506.815,173.893a88.61,88.61,0,0,0-31.666-19.57A93.782,93.782,0,0,0,438.9,149.18a81.413,81.413,0,0,0-34.162,10.177,134.13,134.13,0,0,0-12.142,7.6h0a13.556,13.556,0,0,0-13.556-13.56H346.382V344.229c-.147,2.193-.257,4.39-.417,6.582h.417v0H392.6v0h.417V241.8a45.889,45.889,0,0,1,78.335-32.453A46.54,46.54,0,0,1,485.166,241.8l.846,109.008h50.453q.43-54.506-.471-109.008C535.762,216.455,525.03,191.194,506.815,173.893Z" transform="translate(-345.965 -60.411)" fill="#fff"/>
      <path id="Path_3" data-name="Path 3" d="M888.556,241.8c-.227-25.349-10.959-50.609-29.174-67.911a88.612,88.612,0,0,0-31.665-19.57,93.788,93.788,0,0,0-36.245-5.143,81.4,81.4,0,0,0-34.162,10.177,127.748,127.748,0,0,0-27.827,20.458c-.593.581-1.153,1.187-1.725,1.785-.24-.291-.467-.589-.7-.88-2.151-2.3-4.364-4.533-6.578-6.747a91.807,91.807,0,0,0-67.831-24.793,81.418,81.418,0,0,0-34.162,10.177,132.928,132.928,0,0,0-12.138,7.6h0a13.56,13.56,0,0,0-13.56-13.56H560.122V344.2c-.147,2.2-.256,4.406-.416,6.608h.416v0h46.223v0h.413V241.8a45.89,45.89,0,0,1,78.336-32.453A46.538,46.538,0,0,1,698.907,241.8l.711,91.757s.134,17.251,0,17.251h45.967V241.8a45.889,45.889,0,0,1,78.335-32.453A46.52,46.52,0,0,1,837.729,241.8l.85,109.008h50.449Q889.457,296.305,888.556,241.8Z" transform="translate(339.852 -60.411)" fill="#fff"/>
      <path id="Path_4" data-name="Path 4" d="M664.715,168.668a105.373,105.373,0,0,0-136.553,159.7A107.386,107.386,0,0,0,562.277,351.2a97.923,97.923,0,0,0,80.056-1.233l9.141-4.52c2.959-1.667,5.774-3.569,8.691-5.294,1.536-1.044,3.047-2.125,4.55-3.22h0a15.679,15.679,0,0,0,15.677,15.677h30.546V155.192H678.191a13.478,13.478,0,0,0-13.476,13.476Zm-17.76,129.693c-11.515,11.948-27.966,18.333-44.393,18.228a62.5,62.5,0,1,1,62.153-66.484v8.758A62.747,62.747,0,0,1,646.954,298.361Z" transform="translate(139.463 -62.202)" fill="#fff"/>
      <path id="Path_5" data-name="Path 5" d="M598.92,368.215a86.64,86.64,0,0,1-12.655,5.067,59.272,59.272,0,0,1-13.855,1.439,55.013,55.013,0,0,1-15.605-2.1,21.5,21.5,0,0,1-8.48-4.545,21.13,21.13,0,0,1-5.273-8.232c-1.692-4.305-2.555-10.033-2.555-17.032V217.958h68.512V169.353H540.5V143.8a13.01,13.01,0,0,0-13.009-13.009h-38.66v38.56H454.366v48.605h34.461V342.807c0,13.506,2.066,25.606,6.136,35.929a72.085,72.085,0,0,0,18.854,27.79,72.885,72.885,0,0,0,28.32,15.639,106.6,106.6,0,0,0,30.272,4.23,110.573,110.573,0,0,0,26.1-2.912c7.567-1.848,20.627-6.953,28.244-10.871a151.557,151.557,0,0,1-27.486-43.5C599.143,368.813,599.038,368.51,598.92,368.215Z" transform="translate(1.855 -118.937)" fill="#fff"/>
      <path id="Path_6" data-name="Path 6" d="M600.943,225.7a159.3,159.3,0,0,1-81.114-22.213l-22.074,37.276a202.518,202.518,0,0,0,206.379,0L682.06,203.488A159.3,159.3,0,0,1,600.943,225.7Z" transform="translate(141.077 114.315)" fill="#fff"/>
      <path id="Path_7" data-name="Path 7" d="M504.193,171.3a159.316,159.316,0,0,0-81.117,22.213l-22.07-37.276a202.544,202.544,0,0,1,206.379,0l-22.074,37.276A159.316,159.316,0,0,0,504.193,171.3Z" transform="translate(-169.358 -127.976)" fill="#fff"/>
    </g>
  </g>
</svg>
