<svg xmlns="http://www.w3.org/2000/svg" width="23.417" height="23.463" viewBox="0 0 23.417 23.463">
  <path id="Path_17" data-name="Path 17" d="M2351.154,7615.6h-20.846a1.3,1.3,0,0,0-1.309,1.309v20.845a1.3,1.3,0,0,0,1.309,1.309h11.2V7630h-3.054v-3.539h3.054v-2.618c0-3.006,1.842-4.654,4.557-4.654a22.016,22.016,0,0,1,2.715.146v3.15h-1.891c-1.455,0-1.745.679-1.745,1.7v2.279h3.49L2348.2,7630h-3.054v9.066h5.963a1.3,1.3,0,0,0,1.309-1.309v-20.845A1.234,1.234,0,0,0,2351.154,7615.6Z" transform="translate(-2329 -7615.6)" fill="#6c3b8c"/>
</svg>
