<svg id="Recurso_3" data-name="Recurso 3" xmlns="http://www.w3.org/2000/svg" width="81.25" height="55.825" viewBox="0 0 81.25 55.825">
  <g id="Capa_1" data-name="Capa 1" transform="translate(0 0)">
    <path id="Path_53" data-name="Path 53" d="M40.365.265a1.81,1.81,0,0,0-1.75-.072L12.248,13.467H4.356A4.356,4.356,0,0,0,0,17.835V37.988a4.356,4.356,0,0,0,4.356,4.344h7.88l26.379,13.3a1.81,1.81,0,0,0,2.631-1.617V1.81A1.81,1.81,0,0,0,40.365.265ZM3.62,37.988V17.835a.736.736,0,0,1,.724-.724h6.516V38.724h-6.5A.736.736,0,0,1,3.62,37.988ZM37.6,51.068,14.481,39.411v-23L37.6,4.754Z" transform="translate(0 -0.002)" fill="#fff"/>
    <path id="Path_54" data-name="Path 54" d="M43.86,16.294a1.81,1.81,0,0,0,0,2.558,8.532,8.532,0,0,1,0,11.6,1.81,1.81,0,1,0,2.57,2.5,12.152,12.152,0,0,0,0-16.677,1.81,1.81,0,0,0-2.57.024Z" transform="translate(8.922 3.253)" fill="#fff"/>
    <path id="Path_55" data-name="Path 55" d="M51.761,12.69a1.81,1.81,0,0,0,0,2.558A14.481,14.481,0,0,1,55.779,25.4a14.481,14.481,0,0,1-3.994,10.149,1.813,1.813,0,0,0,2.582,2.546,18.511,18.511,0,0,0,0-25.341,1.81,1.81,0,0,0-2.607-.06Z" transform="translate(10.591 2.513)" fill="#fff"/>
    <path id="Path_56" data-name="Path 56" d="M62.262,9.093a1.813,1.813,0,1,0-2.582,2.546A20.732,20.732,0,0,1,65.387,26.12,20.744,20.744,0,0,1,59.679,40.6a1.813,1.813,0,1,0,2.582,2.546A24.388,24.388,0,0,0,69.02,26.107,24.388,24.388,0,0,0,62.262,9.093Z" transform="translate(12.23 1.766)" fill="#fff"/>
  </g>
</svg>
