<svg id="Group_49" data-name="Group 49" xmlns="http://www.w3.org/2000/svg" width="56.031" height="79.044" viewBox="0 0 56.031 79.044">
  <path id="Path_8" data-name="Path 8" d="M545.1,398.2a28.016,28.016,0,1,0,28.015,28.015A28.046,28.046,0,0,0,545.1,398.2Zm0,44.689a16.673,16.673,0,1,1,16.672-16.673A16.692,16.692,0,0,1,545.1,442.887Z" transform="translate(-517.085 -375.186)" fill="#6c3b8c"/>
  <path id="Path_9" data-name="Path 9" d="M545.348,353.333a42.426,42.426,0,0,0-21.6,5.916l-5.879-9.928a53.939,53.939,0,0,1,54.965,0l-5.879,9.928A42.431,42.431,0,0,0,545.348,353.333Z" transform="translate(-517.547 -341.795)" fill="#6c3b8c"/>
</svg>
