<svg xmlns="http://www.w3.org/2000/svg" width="23.463" height="23.463" viewBox="0 0 23.463 23.463">
  <path id="Path_16" data-name="Path 16" d="M2269.931,7617.732c3.151,0,3.491,0,4.751.048a6.986,6.986,0,0,1,2.181.388,4.053,4.053,0,0,1,1.357.872,3.634,3.634,0,0,1,.873,1.357,6.991,6.991,0,0,1,.388,2.182c.048,1.212.048,1.6.048,4.75s0,3.49-.048,4.75a7,7,0,0,1-.388,2.182,4.078,4.078,0,0,1-.873,1.357,3.644,3.644,0,0,1-1.357.872,6.99,6.99,0,0,1-2.181.388c-1.212.049-1.6.049-4.751.049s-3.49,0-4.751-.049a6.992,6.992,0,0,1-2.181-.388,4.08,4.08,0,0,1-1.357-.872,3.641,3.641,0,0,1-.873-1.357,6.994,6.994,0,0,1-.388-2.182c-.049-1.212-.049-1.6-.049-4.75s0-3.49.049-4.75a6.983,6.983,0,0,1,.388-2.182,4.059,4.059,0,0,1,.873-1.357,3.628,3.628,0,0,1,1.357-.872,6.973,6.973,0,0,1,2.181-.388c1.26-.048,1.6-.048,4.751-.048m0-2.133c-3.2,0-3.587,0-4.848.048a8.573,8.573,0,0,0-2.86.533,5.523,5.523,0,0,0-2.085,1.357,5.739,5.739,0,0,0-1.357,2.084,8.336,8.336,0,0,0-.533,2.86c-.048,1.26-.048,1.649-.048,4.848s0,3.587.048,4.848a8.589,8.589,0,0,0,.533,2.86,5.523,5.523,0,0,0,1.357,2.084,5.744,5.744,0,0,0,2.085,1.357,8.327,8.327,0,0,0,2.86.533c1.26.049,1.648.049,4.848.049s3.587,0,4.848-.049a8.576,8.576,0,0,0,2.86-.533,5.52,5.52,0,0,0,2.084-1.357,5.744,5.744,0,0,0,1.357-2.084,8.325,8.325,0,0,0,.533-2.86c.049-1.261.049-1.648.049-4.848s0-3.588-.049-4.848a8.565,8.565,0,0,0-.533-2.86,5.518,5.518,0,0,0-1.357-2.084,5.741,5.741,0,0,0-2.084-1.357,8.328,8.328,0,0,0-2.86-.533c-1.26,0-1.648-.048-4.848-.048Zm0,5.72a6.011,6.011,0,1,0,6.011,6.011A6.01,6.01,0,0,0,2269.931,7621.32Zm0,9.889a3.927,3.927,0,1,1,3.927-3.926A3.941,3.941,0,0,1,2269.931,7631.209Zm6.254-11.537a1.406,1.406,0,1,0,1.406,1.406A1.406,1.406,0,0,0,2276.185,7619.672Z" transform="translate(-2258.2 -7615.6)" fill="#6c3b8c"/>
</svg>
