<svg id="Group_16" data-name="Group 16" xmlns="http://www.w3.org/2000/svg" width="25.955" height="23.289" viewBox="0 0 25.955 23.289">
  <g id="Group_14" data-name="Group 14">
    <path id="Path_13" data-name="Path 13" d="M24.035,0H1.914A1.809,1.809,0,0,0,0,1.679V21.609a1.81,1.81,0,0,0,1.914,1.681H24.035a1.815,1.815,0,0,0,1.921-1.681V1.679A1.814,1.814,0,0,0,24.035,0ZM7.7,19.845H3.844V8.731H7.7ZM5.774,7.213a2.128,2.128,0,0,1-2.235-2,2.128,2.128,0,0,1,2.235-2A2.128,2.128,0,0,1,8,5.209,2.128,2.128,0,0,1,5.774,7.213ZM22.118,19.845H18.269V14.439c0-1.289-.026-2.946-2-2.946-2,0-2.307,1.405-2.307,2.854v5.5H10.114V8.731H13.8V10.25h.053A4.149,4.149,0,0,1,17.5,8.455c3.9,0,4.619,2.3,4.619,5.294Z" fill="#6c3b8c"/>
  </g>
</svg>
